<svg width="55" height="8" viewBox="0 0 55 8" fill="none" xmlns="http://www.w3.org/2000/svg">
<path fill-rule="evenodd" clip-rule="evenodd" d="M10.2411 0C7.83394 0 6.07157 1.67467 6.07157 4C6.07157 4.90667 6.34022 5.70667 6.81305 6.35733H0.827453C0.365369 6.35733 0 6.73067 0 7.17867V8H10.2411H10.2518C12.659 8 14.4106 6.32533 14.4106 4C14.3998 1.67467 12.659 0 10.2411 0ZM10.2303 6.60267C8.79034 6.60267 7.73722 5.52533 7.73722 4C7.73722 2.496 8.7796 1.39733 10.2303 1.39733C11.6918 1.39733 12.7342 2.496 12.7342 4C12.7342 5.52533 11.6918 6.60267 10.2303 6.60267ZM24.2761 4C24.2761 6.32533 22.5352 8 20.1173 8C17.7102 8 15.9478 6.32533 15.9478 4C15.9478 1.67467 17.7102 0 20.1173 0C22.5245 0 24.2761 1.67467 24.2761 4ZM17.6135 4C17.6135 5.52533 18.6559 6.60267 20.1066 6.60267C21.5681 6.60267 22.6105 5.52533 22.6105 4C22.6105 2.496 21.5681 1.39733 20.1066 1.39733C18.6559 1.39733 17.6135 2.496 17.6135 4ZM33.0777 3.40267V7.17867H33.0455V8H32.218C31.7667 8 31.3906 7.63733 31.3906 7.17867V3.40267C31.3906 2.16533 30.6168 1.35467 29.424 1.35467C28.2312 1.35467 27.4574 2.176 27.4574 3.40267V8H26.63C26.1787 8 25.8025 7.63733 25.8025 7.17867V3.40267C25.8025 1.376 27.2748 0 29.424 0C31.5947 0 33.0777 1.376 33.0777 3.40267ZM41.8781 0.661333V0H41.0613C40.5993 0 40.2339 0.373333 40.2339 0.821333V4.608C40.2339 5.83467 39.4387 6.63467 38.2458 6.63467C37.053 6.63467 36.2793 5.83467 36.2793 4.608V3.66933V0.981333V0.661333V0H35.4626C35.0005 0 34.6351 0.362667 34.6351 0.821333V4.61867C34.6351 6.63467 36.1073 8 38.2673 8C40.4166 8 41.8888 6.624 41.8888 4.61867V2.688V0.981333L41.8781 0.661333ZM49.2185 1.48267C49.7021 0.554667 50.6908 0 51.9481 0C53.7964 0 55.0107 1.22667 55 3.09333V8H54.1725C53.7212 8 53.3451 7.63733 53.3451 7.17867V3.05067C53.3451 2.016 52.7003 1.312 51.7009 1.312C50.7015 1.312 50.0352 2.016 50.0352 3.05067V5.84533V7.01867V7.33867V7.88267V8H49.2185C48.7672 8 48.3911 7.63733 48.3911 7.17867V3.05067C48.3911 2.016 47.7248 1.312 46.7254 1.312C45.726 1.312 45.0812 2.016 45.0812 3.05067V7.168V7.98933H44.2538C43.8025 7.98933 43.4263 7.62667 43.4263 7.168V3.09333C43.4263 1.22667 44.6299 0 46.489 0C47.7463 0 48.735 0.554667 49.2185 1.48267Z" fill="black"/>
</svg>
