<svg width="45" height="7" viewBox="0 0 45 7" fill="none" xmlns="http://www.w3.org/2000/svg">
<path fill-rule="evenodd" clip-rule="evenodd" d="M8.37906 0C6.40958 0 4.96765 1.46533 4.96765 3.5C4.96765 4.29333 5.18746 4.99333 5.57432 5.56267H0.677007C0.298938 5.56267 0 5.88933 0 6.28133V7H8.37906H8.38785C10.3573 7 11.7905 5.53467 11.7905 3.5C11.7817 1.46533 10.3573 0 8.37906 0ZM8.37027 5.77733C7.1921 5.77733 6.33045 4.83467 6.33045 3.5C6.33045 2.184 7.18331 1.22267 8.37027 1.22267C9.56602 1.22267 10.4189 2.184 10.4189 3.5C10.4189 4.83467 9.56602 5.77733 8.37027 5.77733ZM19.8621 3.5C19.8621 5.53467 18.4378 7 16.4595 7C14.49 7 13.048 5.53467 13.048 3.5C13.048 1.46533 14.49 0 16.4595 0C18.429 0 19.8621 1.46533 19.8621 3.5ZM14.4109 3.5C14.4109 4.83467 15.2637 5.77733 16.4507 5.77733C17.6464 5.77733 18.4993 4.83467 18.4993 3.5C18.4993 2.184 17.6464 1.22267 16.4507 1.22267C15.2637 1.22267 14.4109 2.184 14.4109 3.5ZM27.0634 2.97733V6.28133H27.037V7H26.36C25.9908 7 25.683 6.68267 25.683 6.28133V2.97733C25.683 1.89467 25.05 1.18533 24.074 1.18533C23.0981 1.18533 22.465 1.904 22.465 2.97733V7H21.788C21.4187 7 21.111 6.68267 21.111 6.28133V2.97733C21.111 1.204 22.3155 0 24.074 0C25.8501 0 27.0634 1.204 27.0634 2.97733ZM34.264 0.578667V0H33.5958C33.2177 0 32.9188 0.326667 32.9188 0.718667V4.032C32.9188 5.10533 32.2682 5.80533 31.2922 5.80533C30.3163 5.80533 29.6832 5.10533 29.6832 4.032V3.21067V0.858667V0.578667V0H29.015C28.6369 0 28.338 0.317333 28.338 0.718667V4.04133C28.338 5.80533 29.5425 7 31.3098 7C33.0683 7 34.2728 5.796 34.2728 4.04133V2.352V0.858667L34.264 0.578667ZM40.2695 1.29733C40.6652 0.485333 41.4741 0 42.5028 0C44.0151 0 45.0086 1.07333 44.9998 2.70667V7H44.3228C43.9535 7 43.6458 6.68267 43.6458 6.28133V2.66933C43.6458 1.764 43.1183 1.148 42.3006 1.148C41.4829 1.148 40.9378 1.764 40.9378 2.66933V5.11467V6.14133V6.42133V6.89733V7H40.2695C39.9003 7 39.5925 6.68267 39.5925 6.28133V2.66933C39.5925 1.764 39.0474 1.148 38.2297 1.148C37.412 1.148 36.8845 1.764 36.8845 2.66933V6.272V6.99067H36.2075C35.8382 6.99067 35.5305 6.67333 35.5305 6.272V2.70667C35.5305 1.07333 36.5152 0 38.0363 0C39.065 0 39.8739 0.485333 40.2695 1.29733Z" fill="black"/>
</svg>
