<svg width="399" height="426" viewBox="0 0 399 426" fill="none" xmlns="http://www.w3.org/2000/svg">
<g filter="url(#filter0_f)">
<circle cx="161.5" cy="237.5" r="87.5" fill="#D7969E"/>
</g>
<g filter="url(#filter1_b)">
<path fill-rule="evenodd" clip-rule="evenodd" d="M369 10H0V426H369V10ZM263.179 144.262C267.02 145.984 267.406 146.754 267.791 149.899L268.977 149.925V139.121H267.791C267.364 142.977 266.979 143.538 264.501 142.507C259.107 140.269 252.166 137.17 246.659 134.678C253.748 131.722 262.243 128.29 265.355 127.116C266.937 126.457 267.447 126.646 267.791 130.124H268.977V118.191H267.791C267.536 121.055 267.109 121.864 263.95 123.169C257.631 125.85 247.643 129.889 240.773 132.662V134.208C244.924 136.014 254.614 140.393 259.96 142.808L259.974 142.815L259.983 142.819L259.991 142.822C261.446 143.48 262.576 143.991 263.179 144.262ZM241.241 169.896H242.426C242.806 173.745 242.978 174.123 246.576 174.123H263.565C267.234 174.123 267.406 173.745 267.791 169.896H268.977V182.488H267.791C267.406 178.573 267.234 178.208 263.565 178.208H246.617C242.948 178.208 242.818 178.586 242.468 182.488H241.282L241.241 169.896ZM240.963 228.908C240.928 229.383 240.897 229.822 240.897 230.317L242.088 230.507C242.407 229.168 243.092 227.97 244.05 227.075C245.435 225.727 246.905 224.489 248.449 223.369C250.369 221.953 253.226 219.937 254.554 219.089C255.918 222.54 258.223 225.15 261.893 225.15C263.004 225.204 264.109 224.937 265.097 224.376C266.086 223.816 266.925 222.98 267.53 221.953C268.597 220.172 268.982 217.869 268.982 214.437V202.458H267.797C267.405 206.171 267.275 206.686 263.647 206.686H246.617C243.019 206.686 242.847 206.373 242.468 202.458H241.282V215.031H242.468C242.776 211.273 242.989 210.751 246.617 210.751H253.321V212.402C253.321 214.77 253.066 215.377 251.697 216.316C251.057 216.759 250.372 217.219 249.67 217.69L249.669 217.69C247.983 218.822 246.19 220.024 244.655 221.249C242.011 223.317 241.199 225.15 240.986 228.582C240.978 228.693 240.97 228.802 240.963 228.908ZM256.024 218.149C255.129 216.975 254.791 215.429 254.791 212.982V210.751H265.248C266.356 210.751 266.783 210.894 267.079 211.318C267.34 211.645 267.506 212.447 267.506 213.811C267.506 217.425 265.846 220.759 261.276 220.759C258.988 220.759 257.263 219.983 256.024 218.149ZM267.791 283.829C267.489 280.828 267.062 279.836 265.1 279.699C265.041 279.697 264.981 279.695 264.92 279.692C264.827 279.689 264.733 279.685 264.635 279.681H264.635C263.318 279.628 261.508 279.556 257.987 279.556H240.867V277.768L263.179 257.666H252.509C248.668 257.666 246.748 257.803 245.509 257.901C243.333 257.993 242.693 259.167 242.438 262.547H241.253L241.253 251.136H242.438C242.652 254.046 243.292 255.174 245.402 255.363C246.771 255.5 248.692 255.598 252.575 255.598H263.434C264.62 255.598 265.313 255.5 266.256 254.659C267.323 253.765 267.578 252.78 267.791 250.477H268.977V257.523L247.506 277.442H257.975C261.94 277.442 263.778 277.35 265.058 277.207C266.979 277.063 267.578 275.987 267.791 272.229H268.977V283.829H267.791ZM242.427 323.202H241.241L241.206 334.777H242.391C242.729 331.443 243.073 331.019 246.784 329.518C254.169 326.582 262.237 323.34 269.534 320.384L269.279 318.877L246.872 309.156C243.031 307.512 242.729 306.761 242.391 303.799H241.206V314.649H242.391C242.836 310.8 243.174 310.141 245.948 311.172C247.01 311.565 248.021 311.975 249.073 312.401C249.782 312.689 250.509 312.983 251.283 313.286V323.437C248.798 324.349 246.735 325.188 245.168 325.825L244.798 325.975C243.191 326.628 242.765 326.256 242.427 323.202ZM253.067 313.99C256.44 315.399 260.322 316.998 263.992 318.505L253.067 322.778V313.99Z" fill="white" fill-opacity="0.85"/>
</g>
<defs>
<filter id="filter0_f" x="-76" y="0" width="475" height="475" filterUnits="userSpaceOnUse" color-interpolation-filters="sRGB">
<feFlood flood-opacity="0" result="BackgroundImageFix"/>
<feBlend mode="normal" in="SourceGraphic" in2="BackgroundImageFix" result="shape"/>
<feGaussianBlur stdDeviation="75" result="effect1_foregroundBlur"/>
</filter>
<filter id="filter1_b" x="-40" y="-30" width="449" height="496" filterUnits="userSpaceOnUse" color-interpolation-filters="sRGB">
<feFlood flood-opacity="0" result="BackgroundImageFix"/>
<feGaussianBlur in="BackgroundImage" stdDeviation="20"/>
<feComposite in2="SourceAlpha" operator="in" result="effect1_backgroundBlur"/>
<feBlend mode="normal" in="SourceGraphic" in2="effect1_backgroundBlur" result="shape"/>
</filter>
</defs>
</svg>
