<svg width="65" height="10" viewBox="0 0 65 10" fill="none" xmlns="http://www.w3.org/2000/svg">
<path fill-rule="evenodd" clip-rule="evenodd" d="M12.1031 0C9.25829 0 7.17549 2.09333 7.17549 5C7.17549 6.13333 7.49299 7.13333 8.05179 7.94667H0.977899C0.431799 7.94667 0 8.41333 0 8.97333V10H12.1031H12.1158C14.9606 10 17.0307 7.90667 17.0307 5C17.018 2.09333 14.9606 0 12.1031 0ZM12.0904 8.25333C10.3886 8.25333 9.14399 6.90667 9.14399 5C9.14399 3.12 10.3759 1.74667 12.0904 1.74667C13.8176 1.74667 15.0495 3.12 15.0495 5C15.0495 6.90667 13.8176 8.25333 12.0904 8.25333ZM28.6899 5C28.6899 7.90667 26.6325 10 23.775 10C20.9302 10 18.8474 7.90667 18.8474 5C18.8474 2.09333 20.9302 0 23.775 0C26.6198 0 28.6899 2.09333 28.6899 5ZM20.8159 5C20.8159 6.90667 22.0478 8.25333 23.7623 8.25333C25.4895 8.25333 26.7214 6.90667 26.7214 5C26.7214 3.12 25.4895 1.74667 23.7623 1.74667C22.0478 1.74667 20.8159 3.12 20.8159 5ZM39.0918 4.25333V8.97333H39.0537V10H38.0758C37.5424 10 37.0979 9.54667 37.0979 8.97333V4.25333C37.0979 2.70667 36.1835 1.69333 34.7738 1.69333C33.3641 1.69333 32.4497 2.72 32.4497 4.25333V10H31.4718C30.9384 10 30.4939 9.54667 30.4939 8.97333V4.25333C30.4939 1.72 32.2338 0 34.7738 0C37.3392 0 39.0918 1.72 39.0918 4.25333ZM49.4923 0.826667V0H48.5271C47.981 0 47.5492 0.466667 47.5492 1.02667V5.76C47.5492 7.29333 46.6094 8.29333 45.1997 8.29333C43.79 8.29333 42.8756 7.29333 42.8756 5.76V4.58667V1.22667V0.826667V0H41.9103C41.3642 0 40.9324 0.453333 40.9324 1.02667V5.77333C40.9324 8.29333 42.6724 10 45.2251 10C47.7651 10 49.505 8.28 49.505 5.77333V3.36V1.22667L49.4923 0.826667ZM58.1673 1.85333C58.7388 0.693333 59.9072 0 61.3931 0C63.5775 0 65.0126 1.53333 64.9999 3.86667V10H64.022C63.4886 10 63.0441 9.54667 63.0441 8.97333V3.81333C63.0441 2.52 62.2821 1.64 61.101 1.64C59.9199 1.64 59.1325 2.52 59.1325 3.81333V7.30667V8.77333V9.17333V9.85333V10H58.1673C57.6339 10 57.1894 9.54667 57.1894 8.97333V3.81333C57.1894 2.52 56.402 1.64 55.2209 1.64C54.0398 1.64 53.2778 2.52 53.2778 3.81333V8.96V9.98667H52.2999C51.7665 9.98667 51.3219 9.53333 51.3219 8.96V3.86667C51.3219 1.53333 52.7444 0 54.9415 0C56.4274 0 57.5958 0.693333 58.1673 1.85333Z" fill="black"/>
</svg>
