<svg width="121" height="16" viewBox="0 0 121 16" fill="none" xmlns="http://www.w3.org/2000/svg">
<g clip-path="url(#clip0)">
<path d="M16.5568 1.02487C14.967 1.23656 14.5778 1.44824 13.7071 3.55858C13.0672 5.10551 9.78868 12.9607 8.62437 15.8689H7.84268C6.4409 12.0944 4.39925 6.60684 3.04365 3.13521C2.38398 1.39939 1.97499 1.16491 0.527039 1.02487V0.373535H6.55964V1.02487C4.80164 1.21376 4.70599 1.49383 5.03912 2.36337C5.63281 4.07314 7.36772 8.73998 8.86185 12.635C10.1218 9.60952 11.6885 5.79593 12.8198 2.83234C13.3409 1.47104 13.0573 1.25936 11.108 1.02487V0.373535H16.57L16.5568 1.02487Z" fill="black"/>
<path d="M26.6656 15.6116V14.9603C28.6116 14.7518 28.8029 14.6574 28.8029 12.6806V3.3469C28.8029 1.331 28.6116 1.23656 26.6656 1.02487V0.373535H33.0314V1.02487C31.0524 1.23656 30.8677 1.331 30.8677 3.3469V12.6578C30.8677 14.6737 31.059 14.7453 33.0314 14.9375V15.5888L26.6656 15.6116Z" fill="black"/>
<path d="M57.2111 15.8008C56.9044 15.8008 56.6405 15.7748 56.3338 15.752C54.5988 15.6347 53.672 15.1886 52.6265 13.7361C51.7491 12.5409 50.8949 11.0623 50.133 9.86713C49.658 9.11483 49.3513 8.97479 48.154 8.97479H47.3195V12.6581C47.3195 14.6512 47.5834 14.7685 49.4832 14.9378V15.5891H43.1274V14.9378C45.1064 14.7294 45.2647 14.6349 45.2647 12.6581V3.30163C45.2647 1.30853 45.0041 1.23689 43.1274 1.02194V0.370605H49.1831C50.918 0.370605 52.0822 0.582295 52.9827 1.1685C53.502 1.50098 53.9243 1.96167 54.2078 2.50491C54.4912 3.04815 54.6261 3.65509 54.5989 4.26561C54.5989 6.2815 53.2795 7.54836 51.5347 8.2974C51.9635 9.0269 52.9827 10.5966 53.6984 11.6518C54.2645 12.4998 54.8906 13.3073 55.5718 14.0683C56.0247 14.5946 56.6303 14.9709 57.3067 15.1462L57.2111 15.8008ZM48.4475 8.16713C49.6844 8.16713 50.4661 7.9815 51.0598 7.48974C51.9866 6.80909 52.3791 5.86139 52.3791 4.60431C52.3791 2.0934 50.6937 1.18152 48.8664 1.18152C48.1771 1.18152 47.7714 1.27271 47.6065 1.416C47.3921 1.57884 47.3195 1.81332 47.3195 2.42232V8.16713H48.4475Z" fill="black"/>
<path d="M84.2635 1.02487C82.7462 1.19097 82.2449 1.42544 82.1756 2.50341C82.1492 3.25245 82.1031 4.23922 82.1031 6.41144V15.8168H81.1993L71.0373 3.55858V9.42063C71.0373 11.531 71.1065 12.5861 71.156 13.2668C71.2022 14.462 71.7959 14.8137 73.5044 14.9538V15.6051H67.7357V14.9538C69.2067 14.8365 69.7773 14.4848 69.873 13.3254C69.9422 12.5731 69.9917 11.5179 69.9917 9.3848V3.41855C69.9917 2.76721 69.9422 2.38617 69.5167 1.86836C69.0649 1.28215 68.5668 1.14212 67.4025 1.02487V0.373535H70.9647L81.0344 12.1693V6.41796C81.0344 4.23923 80.9882 3.22965 80.9157 2.52621C80.8431 1.47104 80.2989 1.14212 78.3991 1.02487V0.373535H84.2635V1.02487Z" fill="black"/>
<g filter="url(#filter0_d)">
<path d="M104.168 15.6126V14.9612C105.712 14.7756 105.9 14.5411 105.57 13.6585C105.24 12.776 104.785 11.571 104.287 10.0957H99.1549C98.7756 11.1509 98.4193 12.0497 98.0862 13.0268C97.5651 14.5509 97.8982 14.7365 99.8442 14.9808V15.6321H94.3591V14.9808C95.8566 14.7951 96.2359 14.629 97.067 12.5187L101.982 0.208395L102.743 0.0683594C104.238 4.07735 105.877 8.50971 107.361 12.5676C108.12 14.6062 108.334 14.7951 110.019 14.9808V15.6321L104.168 15.6126ZM101.793 3.11337C101.032 5.12927 100.224 7.2624 99.5111 9.11546H103.954L101.793 3.11337Z" fill="black"/>
</g>
</g>
<defs>
<filter id="filter0_d" x="90.3591" y="0.0683594" width="23.6603" height="23.5637" filterUnits="userSpaceOnUse" color-interpolation-filters="sRGB">
<feFlood flood-opacity="0" result="BackgroundImageFix"/>
<feColorMatrix in="SourceAlpha" type="matrix" values="0 0 0 0 0 0 0 0 0 0 0 0 0 0 0 0 0 0 127 0" result="hardAlpha"/>
<feOffset dy="4"/>
<feGaussianBlur stdDeviation="2"/>
<feColorMatrix type="matrix" values="0 0 0 0 0 0 0 0 0 0 0 0 0 0 0 0 0 0 0.25 0"/>
<feBlend mode="normal" in2="BackgroundImageFix" result="effect1_dropShadow"/>
<feBlend mode="normal" in="SourceGraphic" in2="effect1_dropShadow" result="shape"/>
</filter>
<clipPath id="clip0">
<rect width="119.595" height="15.8275" fill="white" transform="translate(0.527039 0.0424805)"/>
</clipPath>
</defs>
</svg>
