<svg width="100" height="13" viewBox="0 0 100 13" fill="none" xmlns="http://www.w3.org/2000/svg">
<g clip-path="url(#clip0)">
<path d="M13.4034 0.807929C12.0741 0.981797 11.7487 1.15566 11.0206 2.889C10.4855 4.15957 7.74419 10.6114 6.77065 13.0001H6.11703C4.94492 9.8999 3.23778 5.3927 2.10428 2.54126C1.5527 1.11554 1.21072 0.922949 0 0.807929V0.272949H5.04421V0.807929C3.57424 0.963073 3.49426 1.19311 3.77281 1.90731C4.26923 3.31163 5.71989 7.14476 6.96922 10.3439C8.02274 7.85896 9.33275 4.72665 10.2787 2.29249C10.7145 1.17439 10.4773 1.00052 8.84735 0.807929V0.272949H13.4144L13.4034 0.807929Z" fill="black"/>
<path d="M21.856 12.7888V12.2538C23.4831 12.0826 23.6431 12.005 23.6431 10.3814V2.71513C23.6431 1.05937 23.4831 0.981797 21.856 0.807929V0.272949H27.1787V0.807929C25.524 0.981797 25.3695 1.05937 25.3695 2.71513V10.3627C25.3695 12.0184 25.5295 12.0773 27.1787 12.2351V12.7701L21.856 12.7888Z" fill="black"/>
<path d="M47.3968 12.9437C47.1403 12.9437 46.9197 12.9223 46.6632 12.9036C45.2126 12.8073 44.4376 12.4408 43.5633 11.2478C42.8297 10.2661 42.1155 9.05171 41.4784 8.07002C41.0812 7.45212 40.8248 7.3371 39.8236 7.3371H39.1259V10.3624C39.1259 11.9994 39.3465 12.0957 40.9351 12.2348V12.7698H35.6206V12.2348C37.2753 12.0636 37.4077 11.9861 37.4077 10.3624V2.67743C37.4077 1.04039 37.1898 0.981542 35.6206 0.804999V0.27002H40.6841C42.1348 0.27002 43.1083 0.443891 43.8612 0.925372C44.2954 1.19846 44.6485 1.57684 44.8856 2.02304C45.1226 2.46923 45.2353 2.96774 45.2126 3.46919C45.2126 5.12495 44.1094 6.16549 42.6505 6.78072C43.009 7.37989 43.8612 8.6692 44.4597 9.53586C44.933 10.2324 45.4565 10.8956 46.0261 11.5206C46.4048 11.9529 46.9112 12.262 47.4768 12.406L47.3968 12.9437ZM40.0691 6.67372C41.1033 6.67372 41.7569 6.52126 42.2533 6.11735C43.0283 5.55829 43.3565 4.77989 43.3565 3.74738C43.3565 1.68504 41.9472 0.936066 40.4193 0.936066C39.8429 0.936066 39.5037 1.01096 39.3658 1.12866C39.1866 1.2624 39.1259 1.455 39.1259 1.9552V6.67372H40.0691Z" fill="black"/>
<path d="M70.0169 0.807929C68.7482 0.944348 68.329 1.13694 68.2711 2.02233C68.249 2.63755 68.2104 3.44805 68.2104 5.2322V12.9573H67.4548L58.9577 2.889V7.70381C58.9577 9.43715 59.0156 10.3038 59.057 10.8629C59.0956 11.8446 59.592 12.1334 61.0206 12.2485V12.7834H56.197V12.2485C57.427 12.1522 57.9041 11.8633 57.9841 10.911C58.042 10.2931 58.0834 9.42644 58.0834 7.67438V2.77398C58.0834 2.239 58.042 1.92603 57.6863 1.50073C57.3084 1.01924 56.892 0.904225 55.9185 0.807929V0.272949H58.897L67.3169 9.96143V5.23756C67.3169 3.44805 67.2783 2.61883 67.2176 2.04105C67.1569 1.17439 66.7019 0.904225 65.1133 0.807929V0.272949H70.0169V0.807929Z" fill="black"/>
<path d="M86.6605 12.7888V12.2538C87.9512 12.1013 88.1084 11.9087 87.8326 11.1838C87.5568 10.4589 87.1762 9.46923 86.7598 8.2575H82.4685C82.1513 9.12416 81.8535 9.86244 81.5749 10.6649C81.1392 11.9168 81.4177 12.0692 83.0449 12.2698V12.8048H78.4585V12.2698C79.7106 12.1174 80.0277 11.9809 80.7227 10.2476L84.832 0.136503L85.4691 0.0214844C86.7184 3.31428 88.0891 6.95482 89.3301 10.2877C89.9644 11.9622 90.1437 12.1174 91.553 12.2698V12.8048L86.6605 12.7888ZM84.6748 2.52252C84.0377 4.17828 83.362 5.93033 82.7663 7.45235H86.4812L84.6748 2.52252Z" fill="black"/>
</g>
<defs>
<clipPath id="clip0">
<rect width="100" height="13" fill="white"/>
</clipPath>
</defs>
</svg>
