<svg width="519" height="496" viewBox="0 0 519 496" fill="none" xmlns="http://www.w3.org/2000/svg">
<g filter="url(#filter0_f)">
<circle cx="272" cy="248" r="97" fill="#D7969E"/>
</g>
<g filter="url(#filter1_b)">
<path fill-rule="evenodd" clip-rule="evenodd" d="M465 0H0V496H465V0ZM365.488 166.537C370.225 168.452 370.7 169.308 371.176 172.803L372.638 172.832V160.823H371.176C370.649 165.109 370.174 165.732 367.118 164.586C360.465 162.099 351.904 158.654 345.113 155.884C353.856 152.599 364.333 148.784 368.171 147.479C370.123 146.746 370.751 146.957 371.176 150.822H372.638V137.558H371.176C370.861 140.742 370.335 141.641 366.438 143.091C358.645 146.072 346.326 150.561 337.853 153.643V155.362C342.982 157.373 354.963 162.253 361.549 164.935C363.347 165.667 364.743 166.236 365.488 166.537ZM338.43 195.03H339.893C340.361 199.309 340.573 199.729 345.01 199.729H365.963C370.488 199.729 370.7 199.309 371.176 195.03H372.638V209.027H371.176C370.7 204.675 370.488 204.269 365.963 204.269H345.061C340.536 204.269 340.375 204.69 339.944 209.027H338.482L338.43 195.03ZM338.087 260.625L338.087 260.627C338.045 261.154 338.006 261.641 338.006 262.191L339.476 262.401C339.869 260.914 340.714 259.583 341.895 258.587C343.604 257.089 345.416 255.712 347.32 254.468C349.689 252.894 353.213 250.653 354.85 249.71C356.532 253.547 359.376 256.448 363.901 256.448C365.271 256.507 366.634 256.211 367.853 255.588C369.073 254.964 370.107 254.036 370.853 252.894C372.169 250.914 372.645 248.354 372.645 244.54V231.225H371.182C370.7 235.351 370.539 235.924 366.065 235.924H345.061C340.623 235.924 340.411 235.576 339.943 231.225H338.481V245.2H339.943C340.324 241.022 340.587 240.442 345.061 240.442H353.329V242.277C353.329 244.91 353.015 245.584 351.326 246.628C350.537 247.121 349.693 247.632 348.825 248.156C346.745 249.413 344.535 250.749 342.641 252.111C339.38 254.41 338.379 256.448 338.116 260.262C338.106 260.386 338.097 260.507 338.087 260.625ZM356.663 248.666C355.559 247.361 355.143 245.642 355.143 242.923V240.442H368.039C369.406 240.442 369.932 240.602 370.298 241.073C370.62 241.436 370.824 242.328 370.824 243.844C370.824 247.861 368.777 251.567 363.141 251.567C360.319 251.567 358.191 250.704 356.663 248.666ZM371.176 321.672C370.803 318.336 370.276 317.233 367.856 317.081C367.673 317.075 367.482 317.068 367.283 317.061H367.282C365.658 317.002 363.426 316.921 359.083 316.921H337.97V314.934L365.488 292.591H352.328C347.591 292.591 345.222 292.743 343.694 292.852C341.011 292.953 340.222 294.259 339.907 298.015H338.445V285.332H339.907C340.17 288.566 340.96 289.821 343.563 290.031C345.251 290.183 347.62 290.292 352.409 290.292H365.802C367.264 290.292 368.12 290.183 369.282 289.248C370.598 288.254 370.912 287.159 371.176 284.599H372.638V292.431L346.158 314.572H359.069C363.96 314.572 366.226 314.47 367.805 314.311C370.174 314.151 370.912 312.955 371.176 308.777H372.638V321.672H371.176ZM339.893 365.437H338.431L338.387 378.302H339.849C340.266 374.596 340.69 374.125 345.266 372.457C354.376 369.193 364.326 365.589 373.325 362.304L373.011 360.629L345.376 349.823C340.639 347.995 340.266 347.161 339.849 343.869H338.387V355.929H339.849C340.397 351.651 340.814 350.918 344.236 352.064C345.546 352.501 346.793 352.957 348.091 353.431C348.965 353.75 349.862 354.078 350.815 354.414V365.698C347.751 366.711 345.206 367.644 343.273 368.352L342.817 368.519C340.836 369.244 340.31 368.831 339.893 365.437ZM353.016 355.197C357.176 356.763 361.964 358.54 366.49 360.215L353.016 364.965V355.197Z" fill="white" fill-opacity="0.85"/>
</g>
<defs>
<filter id="filter0_f" x="25" y="1" width="494" height="494" filterUnits="userSpaceOnUse" color-interpolation-filters="sRGB">
<feFlood flood-opacity="0" result="BackgroundImageFix"/>
<feBlend mode="normal" in="SourceGraphic" in2="BackgroundImageFix" result="shape"/>
<feGaussianBlur stdDeviation="75" result="effect1_foregroundBlur"/>
</filter>
<filter id="filter1_b" x="-40" y="-40" width="545" height="576" filterUnits="userSpaceOnUse" color-interpolation-filters="sRGB">
<feFlood flood-opacity="0" result="BackgroundImageFix"/>
<feGaussianBlur in="BackgroundImage" stdDeviation="20"/>
<feComposite in2="SourceAlpha" operator="in" result="effect1_backgroundBlur"/>
<feBlend mode="normal" in="SourceGraphic" in2="effect1_backgroundBlur" result="shape"/>
</filter>
</defs>
</svg>
