<svg width="360" height="418" viewBox="0 0 360 418" fill="none" xmlns="http://www.w3.org/2000/svg">
<g filter="url(#filter0_f)">
<circle cx="63.5" cy="213.5" r="63.5" fill="#D7969E"/>
</g>
<g filter="url(#filter1_b)">
<path fill-rule="evenodd" clip-rule="evenodd" d="M360 2H0V418H360V2ZM70.5075 164.406C72.8122 165.46 73.0434 165.93 73.2746 167.854L73.9859 167.87V161.262H73.2746C73.0185 163.62 72.7873 163.963 71.3006 163.333C68.0641 161.965 63.8994 160.069 60.5953 158.545C64.849 156.738 69.9456 154.639 71.8128 153.921C72.7624 153.518 73.0683 153.634 73.2746 155.76H73.9859V148.463H73.2746C73.1216 150.214 72.8656 150.709 70.9699 151.507C67.1785 153.147 61.1857 155.617 57.0636 157.312V158.258C59.5587 159.364 65.3882 162.049 68.5922 163.525C69.4665 163.928 70.1453 164.24 70.5075 164.406ZM57.3445 180.082H58.0559C58.2835 182.436 58.3866 182.668 60.5455 182.668H70.7387C72.9402 182.668 73.0434 182.436 73.2746 180.082H73.9859V187.783H73.2746C73.0434 185.389 72.9402 185.165 70.7387 185.165H60.5704C58.3688 185.165 58.2906 185.397 58.0807 187.783H57.3694L57.3445 180.082ZM57.1776 216.171C57.1571 216.461 57.1382 216.73 57.1382 217.033L57.853 217.148C58.0445 216.33 58.4555 215.597 59.0303 215.05C59.8613 214.225 60.7432 213.468 61.6693 212.783C62.8216 211.917 64.5359 210.685 65.3326 210.166C66.1506 212.277 67.5341 213.873 69.7357 213.873C70.4024 213.905 71.0652 213.742 71.6585 213.399C72.2518 213.057 72.7549 212.546 73.118 211.917C73.7582 210.828 73.9894 209.42 73.9894 207.321V199.996H73.278C73.0433 202.266 72.9651 202.581 70.7884 202.581H60.5703C58.4114 202.581 58.3083 202.39 58.0807 199.996H57.3693V207.684H58.0807C58.2656 205.386 58.3936 205.067 60.5703 205.067H64.5928V206.076C64.5928 207.525 64.4399 207.896 63.6183 208.47C63.2355 208.741 62.8262 209.02 62.4058 209.308L62.4022 209.31L62.4017 209.311C61.3897 210.002 60.3143 210.738 59.393 211.487C57.8068 212.751 57.3195 213.873 57.1915 215.971L57.1868 216.04L57.1776 216.171ZM66.2146 209.591C65.6776 208.873 65.4748 207.928 65.4748 206.431V205.067H71.7487C72.4138 205.067 72.6699 205.155 72.8477 205.414C73.0042 205.613 73.1038 206.104 73.1038 206.938C73.1038 209.148 72.1079 211.187 69.3658 211.187C67.9929 211.187 66.9579 210.713 66.2146 209.591ZM73.2746 249.757C73.0932 247.922 72.8371 247.315 71.6599 247.231C71.5704 247.228 71.4778 247.224 71.3808 247.22C70.5907 247.188 69.5048 247.144 67.3919 247.144H57.1205V246.05L70.5075 233.758H64.1056C61.801 233.758 60.6486 233.841 59.9053 233.901C58.6 233.957 58.2159 234.675 58.063 236.742H57.3516V229.764H58.063C58.191 231.543 58.5751 232.234 59.8413 232.349C60.6628 232.433 61.8152 232.493 64.1448 232.493H70.6605C71.3718 232.493 71.7879 232.433 72.3534 231.918C72.9936 231.372 73.1465 230.769 73.2746 229.361H73.9859V233.67L61.1039 245.851H67.3848C69.7642 245.851 70.8667 245.795 71.635 245.707C72.7873 245.62 73.1465 244.961 73.2746 242.663H73.9859V249.757H73.2746ZM58.0559 273.835H57.3446L57.3232 280.913H58.0346C58.2373 278.875 58.4436 278.615 60.67 277.698C65.1015 275.902 69.9421 273.919 74.3203 272.112L74.1673 271.19L60.7234 265.245C58.4187 264.24 58.2373 263.781 58.0346 261.969H57.3232V268.605H58.0346C58.3013 266.251 58.504 265.848 60.1685 266.478C60.8059 266.719 61.4128 266.969 62.0438 267.23C62.4691 267.406 62.9055 267.586 63.3695 267.771V273.979C61.879 274.536 60.6412 275.049 59.701 275.439L59.4786 275.531C58.5147 275.93 58.2586 275.703 58.0559 273.835ZM64.44 268.202C66.4637 269.063 68.7933 270.041 70.9948 270.963L64.44 273.576L64.44 268.202Z" fill="white" fill-opacity="0.85"/>
</g>
<defs>
<filter id="filter0_f" x="-150" y="0" width="427" height="427" filterUnits="userSpaceOnUse" color-interpolation-filters="sRGB">
<feFlood flood-opacity="0" result="BackgroundImageFix"/>
<feBlend mode="normal" in="SourceGraphic" in2="BackgroundImageFix" result="shape"/>
<feGaussianBlur stdDeviation="75" result="effect1_foregroundBlur"/>
</filter>
<filter id="filter1_b" x="-40" y="-38" width="440" height="496" filterUnits="userSpaceOnUse" color-interpolation-filters="sRGB">
<feFlood flood-opacity="0" result="BackgroundImageFix"/>
<feGaussianBlur in="BackgroundImage" stdDeviation="20"/>
<feComposite in2="SourceAlpha" operator="in" result="effect1_backgroundBlur"/>
<feBlend mode="normal" in="SourceGraphic" in2="effect1_backgroundBlur" result="shape"/>
</filter>
</defs>
</svg>
