<svg width="733" height="694" viewBox="0 0 733 694" fill="none" xmlns="http://www.w3.org/2000/svg">
<g filter="url(#filter0_f)">
<circle cx="369" cy="364" r="164" fill="#D7969E"/>
</g>
<g filter="url(#filter1_b)">
<path fill-rule="evenodd" clip-rule="evenodd" d="M705 34H0V694H705V34ZM487.444 191.858C496.778 195.681 497.714 197.389 498.65 204.368L501.531 204.426V180.449H498.65C497.613 189.006 496.677 190.251 490.656 187.963C477.549 182.997 460.683 176.119 447.302 170.588C464.529 164.029 485.169 156.413 492.73 153.807C496.576 152.345 497.815 152.765 498.65 160.482H501.531V134H498.65C498.031 140.356 496.994 142.152 489.317 145.047C473.963 150.998 449.693 159.961 433 166.114V169.546C443.103 173.561 466.705 183.302 479.681 188.657C483.225 190.12 485.977 191.256 487.444 191.858ZM434.138 248.745H437.019C437.94 257.288 438.358 258.128 447.101 258.128H488.381C497.296 258.128 497.714 257.288 498.65 248.745H501.531V276.69H498.65C497.714 268.002 497.296 267.191 488.381 267.191H447.202C438.286 267.191 437.969 268.031 437.119 276.69H434.239L434.138 248.745ZM433.462 379.708V379.708V379.708C433.379 380.762 433.302 381.736 433.302 382.835L436.197 383.255C436.972 380.285 438.637 377.627 440.964 375.639C444.33 372.648 447.901 369.9 451.651 367.415C456.318 364.273 463.261 359.799 466.487 357.917C469.8 365.576 475.403 371.368 484.318 371.368C487.018 371.487 489.703 370.895 492.105 369.651C494.508 368.406 496.545 366.553 498.016 364.273C500.608 360.32 501.544 355.209 501.544 347.593V321.01H498.664C497.713 329.248 497.396 330.392 488.582 330.392H447.201C438.458 330.392 438.04 329.697 437.119 321.01H434.238V348.911H437.119C437.868 340.571 438.386 339.413 447.201 339.413H463.491V343.076C463.491 348.332 462.872 349.678 459.545 351.763C457.993 352.745 456.334 353.761 454.63 354.805L454.622 354.81L454.618 354.812C450.52 357.323 446.164 359.991 442.433 362.709C436.01 367.299 434.036 371.368 433.518 378.984C433.499 379.231 433.48 379.471 433.462 379.708ZM470.059 355.832C467.884 353.225 467.063 349.794 467.063 344.364V339.413H492.47C495.164 339.413 496.201 339.731 496.921 340.672C497.555 341.396 497.958 343.177 497.958 346.203C497.958 354.224 493.925 361.623 482.82 361.623C477.261 361.623 473.069 359.9 470.059 355.832ZM498.65 501.59C497.916 494.929 496.879 492.729 492.111 492.425C491.76 492.412 491.397 492.399 491.017 492.385L490.98 492.384L490.979 492.384C487.779 492.267 483.382 492.106 474.827 492.106H433.23V488.139L487.444 443.529H461.518C452.185 443.529 447.518 443.833 444.508 444.05C439.222 444.253 437.667 446.859 437.047 454.359H434.167V429.036H437.047C437.566 435.493 439.121 437.998 444.249 438.418C447.576 438.722 452.243 438.939 461.677 438.939H488.064C490.944 438.939 492.63 438.722 494.92 436.854C497.512 434.871 498.132 432.684 498.65 427.573H501.531V443.211L449.362 487.415H474.798C484.434 487.415 488.899 487.212 492.01 486.894C496.677 486.575 498.132 484.186 498.65 475.846H501.531V501.59H498.65ZM437.019 588.969H434.138L434.052 614.654H436.933C437.754 607.256 438.589 606.314 447.605 602.984C465.552 596.469 485.155 589.273 502.885 582.714L502.266 579.369L447.822 557.795C438.488 554.147 437.754 552.482 436.933 545.908H434.052V569.987H436.933C438.013 561.444 438.834 559.982 445.575 562.269C448.156 563.143 450.614 564.053 453.17 564.999C454.893 565.636 456.659 566.29 458.538 566.961V589.49C452.5 591.513 447.485 593.375 443.678 594.789C443.371 594.903 443.072 595.014 442.78 595.122C438.877 596.57 437.84 595.745 437.019 588.969ZM462.873 568.524C471.068 571.652 480.503 575.199 489.418 578.544L462.873 588.027L462.873 568.524Z" fill="white" fill-opacity="0.85"/>
</g>
<defs>
<filter id="filter0_f" x="5" y="0" width="728" height="728" filterUnits="userSpaceOnUse" color-interpolation-filters="sRGB">
<feFlood flood-opacity="0" result="BackgroundImageFix"/>
<feBlend mode="normal" in="SourceGraphic" in2="BackgroundImageFix" result="shape"/>
<feGaussianBlur stdDeviation="100" result="effect1_foregroundBlur"/>
</filter>
<filter id="filter1_b" x="-40" y="-6" width="785" height="740" filterUnits="userSpaceOnUse" color-interpolation-filters="sRGB">
<feFlood flood-opacity="0" result="BackgroundImageFix"/>
<feGaussianBlur in="BackgroundImage" stdDeviation="20"/>
<feComposite in2="SourceAlpha" operator="in" result="effect1_backgroundBlur"/>
<feBlend mode="normal" in="SourceGraphic" in2="effect1_backgroundBlur" result="shape"/>
</filter>
</defs>
</svg>
